<svg width="24" height="24" viewBox="0 0 24 24" fill="none" xmlns="http://www.w3.org/2000/svg">
<g clip-path="url(#clip0_32_2114)">
<path d="M19.0779 5C16.6631 5 15.6426 6.00952 13.9608 6.00952C12.2359 6.00952 10.9207 5.00612 8.82931 5.00612C6.78103 5.00612 4.59619 6.10129 3.2091 7.96737C1.26143 10.5982 1.59203 15.554 4.74711 19.7757C5.87547 21.2869 7.38473 22.9816 9.36115 23H9.39708C11.1148 23 11.625 22.015 13.9896 22.0027H14.0255C16.3541 22.0027 16.8212 22.9939 18.5317 22.9939H18.5677C20.5441 22.9755 22.1324 21.0972 23.2608 19.5921C24.0729 18.5092 24.3747 17.9646 25 16.741C20.4363 15.2237 19.7032 9.55812 24.2166 7.38613C22.8367 5.87491 20.9034 5 19.0779 5Z" fill="white"/>
<path d="M17.9541 0C16.6586 0.0757576 15.1494 0.784632 14.262 1.70996C13.4587 2.5487 12.798 3.79329 13.0571 5H13.1608C14.5405 5 15.9526 4.28571 16.7752 3.37121C17.572 2.5 18.1744 1.26623 17.9541 0Z" fill="white"/>
</g>
<defs>
<clipPath id="clip0_32_2114">
<rect width="24" height="24" fill="white"/>
</clipPath>
</defs>
</svg>
