<svg width="25" height="26" viewBox="0 0 25 26" fill="none" xmlns="http://www.w3.org/2000/svg">
<path d="M11.4133 12.4167L0.10498 23.8404L0.106647 23.8469C0.28899 24.4711 0.676295 25.0197 1.20916 25.4086C1.74203 25.7975 2.39104 26.0053 3.05665 26C3.62165 26 4.15165 25.8538 4.60665 25.6003L4.64331 25.5792L17.3716 18.59L11.4133 12.415V12.4167Z" fill="#EA4335"/>
<path d="M22.855 10.4714L22.8433 10.4649L17.3483 7.43262L11.1566 12.6749L17.3699 18.5866L22.8366 15.5852C23.7949 15.0929 24.445 14.1325 24.445 13.0226C24.445 11.9225 23.8033 10.9654 22.855 10.4714Z" fill="#FBBC04"/>
<path d="M0.103333 2.16113C0.0366667 2.39838 0 2.64863 0 2.90863V23.0911C0 23.3511 0.035 23.603 0.103333 23.8386L11.8033 12.709L0.101667 2.16113H0.103333Z" fill="#4285F4"/>
<path d="M11.4966 13L17.35 7.43113L4.63331 0.416001C4.155 0.143212 3.61078 -0.000380837 3.05665 7.5858e-07C1.64331 7.5858e-07 0.44998 0.914876 0.10498 2.15638V2.15963L11.495 13H11.4966Z" fill="#34A853"/>
</svg>
