<svg width="21" height="24" viewBox="0 0 21 24" fill="none" xmlns="http://www.w3.org/2000/svg">
<g clip-path="url(#clip0_33_2347)">
<path d="M19.0669 10.6313C19.0677 11.4007 18.9456 12.1653 18.7051 12.8962C18.1574 14.9227 16.9523 16.7099 15.279 17.9774H15.2771L9.5696 22.7592L3.33584 17.5419C1.65998 15.8504 0.25804 13.5584 0.129577 10.8949C0.0130258 8.49823 0.812101 6.14693 2.36483 4.31758C3.91756 2.48823 6.10777 1.3177 8.4915 1.04327C10.8752 0.768834 13.2741 1.41102 15.2019 2.83966C17.1298 4.2683 18.4423 6.3765 18.8734 8.73693C18.8835 8.79228 18.8786 8.84945 18.859 8.9022C18.9976 9.46817 19.0674 10.0488 19.067 10.6315L19.0669 10.6313Z" fill="#02C27F"/>
<path d="M9.62469 12.5941C11.6797 12.5941 13.3454 10.9284 13.3454 8.87335C13.3454 6.81846 11.6797 5.15259 9.62469 5.15259C7.5698 5.15259 5.90393 6.81833 5.90393 8.87335C5.90393 10.9282 7.56967 12.5941 9.62469 12.5941Z" fill="white"/>
</g>
<defs>
<clipPath id="clip0_33_2347">
<rect width="21" height="24" fill="white"/>
</clipPath>
</defs>
</svg>
