<svg xmlns="http://www.w3.org/2000/svg" viewBox="0 0 190.18 45.6"><defs><style>.cls-1{fill:#003477;}</style></defs><title>資產 1</title><g id="圖層_2" data-name="圖層 2"><g id="圖層_1-2" data-name="圖層 1"><path class="cls-1" d="M45,40.74H38a.12.12,0,0,0-.13.15v4.4h.88v-.48h5.52v.48h.89V40.92A.17.17,0,0,0,45,40.74ZM44.25,44H38.73v-.74h5.52Zm0-1.59H38.73v-.65c0-.08,0-.13.12-.13h5.26c.1,0,.14,0,.14.13Z"/><path class="cls-1" d="M46.12,38.36v-.84H41.84V36.8l.42,0a24.07,24.07,0,0,0,3-.33l-.11-.83a37.87,37.87,0,0,1-6.38.43H37.55l.1.85h.92c.7,0,1.49,0,2.38,0v.68H36.72v.84h3.63A10.29,10.29,0,0,1,36.55,40l.4.87A11.25,11.25,0,0,0,41,39v1.46h.89V39a12.13,12.13,0,0,0,4,1.82l.47-.84a10,10,0,0,1-3.88-1.58Z"/><path class="cls-1" d="M51.65,39a9.13,9.13,0,0,1,1.49,1.16l.58-.69a9,9,0,0,0-1.53-1.18Z"/><path class="cls-1" d="M52.32,35.89l-.49.74a10.81,10.81,0,0,1,1.6,1.1L54,37A9.14,9.14,0,0,0,52.32,35.89Z"/><path class="cls-1" d="M52.78,40.9a8.83,8.83,0,0,1-1.14,4l.87.26A10.2,10.2,0,0,0,53.67,41Z"/><path class="cls-1" d="M59.42,43.16c.15,0,.21-.07.21-.21v-1.7a12.57,12.57,0,0,0,1,1l.76-.49a8.45,8.45,0,0,1-2-2.31h2v-.8H59.43V37.48h1.65v-.8H59.43v-1h-.84v1H56.7v-1h-.85v1H54.42v.8h1.43v1.21H54.18v.8h1.55a8.3,8.3,0,0,1-2.07,2.33l.7.57a6.76,6.76,0,0,0,1.08-1.07V44a1.23,1.23,0,0,0,.25.85,1.33,1.33,0,0,0,.93.32H60a1.2,1.2,0,0,0,.88-.47,3.27,3.27,0,0,0,.39-1.51L60.41,43c0,.84,0,1.32-.73,1.32h-2.9c-.49,0-.49-.57-.49-.79v-.37Zm-.63-.9c0,.06,0,.09-.1.09h-2.4v-1a.08.08,0,0,1,.09-.09h2.31c.06,0,.1,0,.1.09ZM56.7,37.48h1.89v1.21H56.7Zm-.6,3,.54-.95H58.5l.53.93v0Z"/><path class="cls-1" d="M71.7,36.77a16,16,0,0,1,1.85,2l.7-.54a25,25,0,0,0-1.89-2Z"/><path class="cls-1" d="M71.25,41.62c-.55-.75-1.12-1.48-1.73-2.16v-.14H71v-.88H69.52V36.87l1.42-.3-.14-.88a19.38,19.38,0,0,1-3.75.5l.1.89,1.49-.1v1.46h-1.7v.88h1.55a10.13,10.13,0,0,1-1.7,3.18l.83.32a10,10,0,0,0,1-1.8v4.3h.88V40.71l1,1.45Z"/><polygon class="cls-1" points="75.48 41.67 75.48 35.69 74.6 35.69 74.6 41.83 70.46 42.53 70.68 43.4 74.6 42.73 74.6 45.29 75.48 45.29 75.48 42.59 76.5 42.39 76.36 41.52 75.48 41.67"/><path class="cls-1" d="M73,41.13l.69-.54c-.32-.4-.92-1-1.77-1.87l-.64.58A16.52,16.52,0,0,1,73,41.13Z"/><path class="cls-1" d="M84.92,39.93l-.71.48v-1.9h1v-.89h-1v-1.9h-.88v1.9H82.12v.89h1.21V40.9L82,41.5l.49.76.89-.42v2.23c0,.32-.14.34-.27.34a1.93,1.93,0,0,1-.35,0l-.5-.19,0,.92a5,5,0,0,0,1.16.21.92.92,0,0,0,.89-1V41.39c.42-.25,1-.55,1.25-.77Z"/><path class="cls-1" d="M91.19,39.23l-.37-.3H88.57v-1.4h2.78v-.89H88.57v-1h-.88v1H85.26v.89h2.43v1.4h-2v.88h4.19c.07,0,.13,0,.13.11a8,8,0,0,1-1.72,2.58,13.81,13.81,0,0,1-1.83-2.33l-.73.5a15,15,0,0,0,1.94,2.38,9.75,9.75,0,0,1-3.24,1.4l.56.82a9.36,9.36,0,0,0,3.33-1.65,12.41,12.41,0,0,0,2.77,1.7l.6-.79a12.12,12.12,0,0,1-2.73-1.46A8.7,8.7,0,0,0,91.19,39.23Z"/><path class="cls-1" d="M102.75,39.87a5.63,5.63,0,0,1-.22-1.1h4v-.92h-4.06l0-.52V35.8h-1v1.53l0,.52H97.37v.92h4A7.31,7.31,0,0,1,97,44.44l.66.75a8.72,8.72,0,0,0,4.1-4.48l.16-.44a9.61,9.61,0,0,0,3.52,4.58l.57.43.81-.68A9.24,9.24,0,0,1,102.75,39.87Z"/><path class="cls-1" d="M121.17,39.14V36a.17.17,0,0,0-.19-.19h-2.1v.73h1.38a.09.09,0,0,1,.1.09v.33h-1.52v.72h1.52V38h-1.52v.73h1.52v.42H118l.42-.48-.53-.43.46-.33-.39-.49.42-.59-.52-.32.46-.38-.5-.54-.63.55-.88-.48-.36.62.53.28a9.16,9.16,0,0,1-.86.33l.36.65.47-.16-.36.49.44.28a5.07,5.07,0,0,1-.89.25l.31.69a4.28,4.28,0,0,0,1.27-.47l.67.53h-4.12v-.38h1.52V38h-1.52v-.38h1.47v-.72h-1.47v-.32s0-.08,0-.08a8.6,8.6,0,0,0,1.84-.19l-.31-.76a8.67,8.67,0,0,1-1.88.2c-.42,0-.49,0-.48.2v3.16h-.48c-.11,0-.16,0-.16.14v2.07h.85V40a.07.07,0,0,1,.08-.08h7.65c.07,0,.1,0,.1.13a6,6,0,0,1-.26,1.2l.8.24a7.62,7.62,0,0,0,.41-2l-.73-.36Zm-3.91-1.35-.69-.47.67-.37.66.41Z"/><path class="cls-1" d="M117.74,42.25l2.17-1-.63-.92h-4.75v.8h3.76l-1.45.65h-.49a4,4,0,0,1,.52.65h-4.08v.84h4.53a1.72,1.72,0,0,1,.12.58.69.69,0,0,1-.73.67,2.76,2.76,0,0,1-1.42-.45l-.16.87a4,4,0,0,0,1.65.42,1.45,1.45,0,0,0,1.58-1.48,1.56,1.56,0,0,0-.1-.61h3.16v-.84h-3.54Z"/><path class="cls-1" d="M135.78,44a.39.39,0,0,1-.41.43l-.5-.07-.75-.22,0,.93a5.06,5.06,0,0,0,1.36.24,1.06,1.06,0,0,0,1.2-1.08V35.72h-.88Z"/><rect class="cls-1" x="134.04" y="36.46" width="0.85" height="6.37"/><path class="cls-1" d="M132.83,42.52h-3.59a.24.24,0,0,0-.27.27v2.45h.8v-.4h2.54v.4h.8V42.79C133.11,42.61,133,42.52,132.83,42.52Zm-.52,1.5h-2.54v-.58q0-.12.12-.12h2.3a.11.11,0,0,1,.12.12Z"/><path class="cls-1" d="M131.19,35.81l-.77-.22a6.28,6.28,0,0,1-3.11,1.54l.38.8a10.17,10.17,0,0,0,2.88-1.44,11.13,11.13,0,0,0,2.69,1.15l.37-.82a8.38,8.38,0,0,1-2.53-.88Z"/><path class="cls-1" d="M132.9,38.71h-4.69c-.2,0-.31.09-.31.29v2.54a9.09,9.09,0,0,1-.56,3.32l.79.34a9.89,9.89,0,0,0,.58-3.16h4.18a.27.27,0,0,0,.31-.31V39C133.2,38.8,133.1,38.71,132.9,38.71Zm-.51,2.43c0,.1,0,.14-.13.14h-3.55v-.55h3.68Zm0-1.17h-3.68v-.38a.11.11,0,0,1,.12-.12h3.43c.09,0,.13,0,.13.12Z"/><rect class="cls-1" x="128.95" y="37.48" width="3.35" height="0.77"/><path class="cls-1" d="M151.84,42.47v-.81h-4.05v-.58h3.52v-.72h-3.52v-.63h3.81V39h-2.41l.36-.95h2.37v-.81H150.2a8.19,8.19,0,0,0,.7-1.1l-.69-.43a9.47,9.47,0,0,1-.86,1.31l.32.22h-1v-1.6h-.81v1.6h-.94v-1.6h-.82v1.6h-1.22l.44-.22a6.47,6.47,0,0,0-.73-1.28l-.7.43a6.44,6.44,0,0,1,.63,1.07h-1.78v.81H145c.13.26.26.58.41.95h-2.3v.72h3.83v.63h-3.54v.72h3.54v.58h-4.07v.81h3.78a10.88,10.88,0,0,1-4.08,1.47l.33.86a11.18,11.18,0,0,0,4-1.59v2.08h.86V43.13a12.58,12.58,0,0,0,3.93,1.71l.43-.81a10.55,10.55,0,0,1-3.93-1.56ZM146.26,39l-.36-.95h2.8l-.41.95Z"/><path class="cls-1" d="M166.7,37.44H163V35.69H162v1.75h-3.81c-.21,0-.31.1-.31.32v5.13h.93v-.46H162v2.86H163V42.43h3.16v.46H167V37.77A.3.3,0,0,0,166.7,37.44ZM162,41.5h-3.19v-3a.12.12,0,0,1,.13-.14H162Zm4.08,0H163V38.36h3a.13.13,0,0,1,.14.14Z"/><path class="cls-1" d="M179.8,41.75c0,.52,0,.94,0,1.24,0,.7,0,1.26-.79,1.26h-2.24c-.56,0-.59-.29-.58-.61V36.35h-.93V43.8c0,.82.33,1.38,1.11,1.38h3c.66,0,.81-.06,1.1-.39s.3-.55.3-1.81c0-.31,0-.68,0-1.09Z"/><path class="cls-1" d="M180.29,37.06a34.82,34.82,0,0,1,1.26,6.84l.89-.15a32.3,32.3,0,0,0-1.28-6.88Z"/><path class="cls-1" d="M172.76,44l.89.11a32.41,32.41,0,0,0,.72-6.74l-.9-.06A35.34,35.34,0,0,1,172.76,44Z"/><path class="cls-1" d="M179.06,41.8A29.22,29.22,0,0,0,178,35.65l-.88.19a31.58,31.58,0,0,1,1.1,6.1Z"/><polygon class="cls-1" points="47.99 10.19 39.53 10.19 39.53 3.56 37.32 3.56 37.32 20 39.53 20 39.53 12.11 47.99 12.11 47.99 20 50.21 20 50.21 3.56 47.99 3.56 47.99 10.19"/><polygon class="cls-1" points="60.46 13.14 61.36 12.35 68.05 20 71.04 20 62.91 10.96 70.9 3.56 68 3.56 60.46 10.7 60.46 3.56 58.25 3.56 58.25 20 60.46 20 60.46 13.14"/><path class="cls-1" d="M83.42,20.35A6.11,6.11,0,0,0,89.92,14V3.57H87.71v9.7c0,2.68-.88,5.16-4.29,5.16S79.13,16,79.13,13.27V3.57H76.91V14A6.11,6.11,0,0,0,83.42,20.35Z"/><path class="cls-1" d="M102.55,18.43a3.22,3.22,0,0,1-3.44-3.11l-2.24.43a5.4,5.4,0,0,0,5.5,4.6c3.17,0,5.67-2.13,5.67-5.12,0-2.75-1.88-4-4.4-5l-1.27-.46c-1.12-.39-2.48-1.07-2.48-2.35,0-1.44,1.55-2.33,3-2.33a3.09,3.09,0,0,1,2.85,1.54l1.77-1a5.15,5.15,0,0,0-4.57-2.48c-2.69,0-5.24,1.59-5.24,4.25,0,2.29,1.84,3.36,3.87,4.16l1.23.48c1.52.59,3.06,1.35,3.06,3.12A3.21,3.21,0,0,1,102.55,18.43Z"/><polygon class="cls-1" points="117.87 20 120.08 20 120.08 5.44 124.31 5.44 124.31 3.56 113.65 3.56 113.65 5.44 117.87 5.44 117.87 20"/><polygon class="cls-1" points="41.48 30.42 38.44 30.42 38.44 28.74 41.15 28.74 41.15 27.42 38.44 27.42 38.44 26.02 41.31 26.02 41.31 24.69 36.77 24.69 36.77 31.75 41.48 31.75 41.48 30.42"/><path class="cls-1" d="M47.64,27.36c0,.63,0,1.17,0,1.67-.23-.4-.48-.8-.74-1.19l-2.1-3.15H43.18v7.06h1.59v-2.7c0-.71,0-1.29,0-1.8q.34.6.81,1.32l2.11,3.18h1.56V24.69H47.64Z"/><polygon class="cls-1" points="52.68 31.75 54.36 31.75 54.36 26.04 56.45 26.04 56.45 24.68 50.6 24.68 50.6 26.04 52.68 26.04 52.68 31.75"/><path class="cls-1" d="M62.72,29.65A2.14,2.14,0,0,0,62,28.39,1.91,1.91,0,0,0,63,26.69a1.8,1.8,0,0,0-.72-1.48A3.79,3.79,0,0,0,60,24.63a14.43,14.43,0,0,0-1.92.14l-.21,0v6.94h1.66V29H60c.69,0,1,.25,1.16,1a8.28,8.28,0,0,0,.51,1.64l.08.12h1.8l-.23-.38A10,10,0,0,1,62.72,29.65ZM60,27.73h-.54v-1.8l.57,0c.86,0,1.3.3,1.3.89S60.85,27.73,60,27.73Z"/><polygon class="cls-1" points="69.57 30.42 66.53 30.42 66.53 28.74 69.24 28.74 69.24 27.42 66.53 27.42 66.53 26.02 69.4 26.02 69.4 24.69 64.85 24.69 64.85 31.75 69.57 31.75 69.57 30.42"/><path class="cls-1" d="M72.93,29.21h.41c1.52,0,3.14-.63,3.14-2.4a1.94,1.94,0,0,0-.79-1.61,3.82,3.82,0,0,0-2.29-.58,12.93,12.93,0,0,0-1.92.14l-.21,0v7h1.66Zm0-3.27c.13,0,.31,0,.54,0,.4,0,1.34.1,1.34,1s-.92,1.06-1.47,1.06h-.41Z"/><path class="cls-1" d="M82.06,31.75h1.8l-.23-.38a11.77,11.77,0,0,1-.55-1.72,2.18,2.18,0,0,0-.75-1.26,1.91,1.91,0,0,0,1.07-1.7,1.8,1.8,0,0,0-.72-1.48,3.85,3.85,0,0,0-2.36-.58,14.69,14.69,0,0,0-1.92.14l-.21,0v6.94h1.67V29h.45c.7,0,1,.25,1.17,1A8.26,8.26,0,0,0,82,31.63Zm-1.67-4h-.53v-1.8l.56,0c.87,0,1.3.3,1.3.89S81.21,27.73,80.39,27.73Z"/><polygon class="cls-1" points="89.76 26.02 89.76 24.69 85.22 24.69 85.22 31.75 89.94 31.75 89.94 30.42 86.89 30.42 86.89 28.74 89.6 28.74 89.6 27.42 86.89 27.42 86.89 26.02 89.76 26.02"/><path class="cls-1" d="M97.68,24.69H96.09v2.67c0,.64,0,1.18,0,1.67-.23-.4-.48-.8-.74-1.19l-2.1-3.15H91.63v7.06h1.59v-2.7c0-.71,0-1.29,0-1.8q.34.6.81,1.32l2.11,3.18h1.57Z"/><polygon class="cls-1" points="104.35 26.02 104.35 24.69 99.8 24.69 99.8 31.75 104.52 31.75 104.52 30.42 101.47 30.42 101.47 28.74 104.19 28.74 104.19 27.42 101.47 27.42 101.47 26.02 104.35 26.02"/><path class="cls-1" d="M110.49,28.91c0,1.09-.44,1.62-1.33,1.62-1,0-1.28-.88-1.28-1.62V24.69h-1.67v4.16a2.67,2.67,0,0,0,2.91,3,2.76,2.76,0,0,0,3-3V24.69h-1.67Z"/><path class="cls-1" d="M119.47,26.69a1.8,1.8,0,0,0-.72-1.48,3.81,3.81,0,0,0-2.35-.58,14.43,14.43,0,0,0-1.92.14l-.22,0v6.94h1.67V29h.46c.69,0,1,.25,1.16,1a9.23,9.23,0,0,0,.51,1.64l.07.12h1.8l-.23-.38a11.58,11.58,0,0,1-.54-1.72,2.25,2.25,0,0,0-.76-1.26A1.91,1.91,0,0,0,119.47,26.69Zm-3,1h-.54v-1.8l.57,0c.86,0,1.29.3,1.29.89S117.28,27.73,116.47,27.73Z"/><path class="cls-1" d="M124,27.5c-1.06-.39-1.25-.62-1.25-1s.33-.63,1-.63a3,3,0,0,1,1.27.27l.25.12.45-1.3-.21-.1a4.32,4.32,0,0,0-1.73-.32c-1.63,0-2.76.85-2.76,2.07,0,.93.7,1.64,2.1,2.12.95.34,1.14.64,1.14,1s-.44.75-1.18.75a3.67,3.67,0,0,1-1.57-.36l-.26-.14-.41,1.31.17.1a4.56,4.56,0,0,0,2,.43c1.79,0,2.95-.86,2.95-2.18C126,28.69,125.37,28,124,27.5Z"/><polygon class="cls-1" points="132.07 27.39 129.42 27.39 129.42 24.68 127.75 24.68 127.75 31.75 129.42 31.75 129.42 28.77 132.07 28.77 132.07 31.75 133.75 31.75 133.75 24.68 132.07 24.68 132.07 27.39"/><rect class="cls-1" x="135.86" y="24.69" width="1.67" height="7.07"/><path class="cls-1" d="M144.86,26.82a1.94,1.94,0,0,0-.79-1.61,3.82,3.82,0,0,0-2.29-.58,12.69,12.69,0,0,0-1.91.14l-.22,0v7h1.67V29.21h.4C143.24,29.22,144.86,28.59,144.86,26.82Zm-3.14,1.11h-.4v-2c.13,0,.31,0,.54,0,.49,0,1.33.13,1.33,1S142.27,27.93,141.72,27.93Z"/><path class="cls-1" d="M153.53,25.92a3.39,3.39,0,0,1,1.26.23l.25.1.4-1.29-.2-.09a4.42,4.42,0,0,0-1.75-.28c-2.42,0-4.05,1.49-4.05,3.7s1.51,3.56,3.85,3.56a5.41,5.41,0,0,0,1.92-.3l.19-.08-.32-1.28-.27.1a3.79,3.79,0,0,1-1.3.22,2.1,2.1,0,0,1-2.34-2.27A2.15,2.15,0,0,1,153.53,25.92Z"/><polygon class="cls-1" points="161.74 30.42 158.7 30.42 158.7 28.74 161.41 28.74 161.41 27.42 158.7 27.42 158.7 26.02 161.57 26.02 161.57 24.69 157.03 24.69 157.03 31.75 161.74 31.75 161.74 30.42"/><path class="cls-1" d="M167.9,27.36c0,.63,0,1.17,0,1.67-.23-.4-.48-.8-.74-1.19l-2.1-3.15h-1.66v7.06H165v-2.7c0-.71,0-1.29,0-1.8q.34.6.81,1.32l2.11,3.18h1.57V24.69H167.9Z"/><polygon class="cls-1" points="176.71 24.68 170.86 24.68 170.86 26.04 172.95 26.04 172.95 31.75 174.62 31.75 174.62 26.04 176.71 26.04 176.71 24.68"/><polygon class="cls-1" points="179.76 28.74 182.47 28.74 182.47 27.42 179.76 27.42 179.76 26.02 182.63 26.02 182.63 24.69 178.09 24.69 178.09 31.75 182.81 31.75 182.81 30.42 179.76 30.42 179.76 28.74"/><path class="cls-1" d="M190,31.37a10.65,10.65,0,0,1-.55-1.72,2.14,2.14,0,0,0-.76-1.26,1.91,1.91,0,0,0,1.07-1.7,1.8,1.8,0,0,0-.72-1.48,3.79,3.79,0,0,0-2.35-.58,14.43,14.43,0,0,0-1.92.14l-.21,0v6.94h1.66V29h.46c.69,0,1,.25,1.16,1a9.23,9.23,0,0,0,.51,1.64l.08.12h1.8Zm-3.24-3.64h-.54v-1.8l.57,0c.86,0,1.3.3,1.3.89S187.53,27.73,186.71,27.73Z"/><path class="cls-1" d="M21.17,8.59H8.24a4.84,4.84,0,0,0,.3.75H20.88A2,2,0,0,0,21.17,8.59Z"/><path class="cls-1" d="M20.61,9.8H8.78a2.33,2.33,0,0,0,.43.64H20.13A3,3,0,0,0,20.61,9.8Z"/><path class="cls-1" d="M19.73,11H9.61a6.35,6.35,0,0,0,.48.48H19.2A2,2,0,0,0,19.73,11Z"/><path class="cls-1" d="M18.63,12h-7.9s0,.06.56.38H18A2.76,2.76,0,0,0,18.63,12Z"/><path class="cls-1" d="M17.35,13H12.2a5.31,5.31,0,0,0,2.46.48A7,7,0,0,0,17.35,13Z"/><path class="cls-1" d="M17,14.05a4.38,4.38,0,0,0-1.47.62,3.35,3.35,0,0,0-.91,1.18,5.39,5.39,0,0,0-1-1.29,3.4,3.4,0,0,0-1.58-.51H2L0,17.13H9.31a3.42,3.42,0,0,1,1.48.54,2.73,2.73,0,0,1,1,1c.1.13,0,.07.13.23a.68.68,0,0,0,.29.25H17s0,0,.11,0a.74.74,0,0,0,.31-.3,1.11,1.11,0,0,0,.19-.37,3.35,3.35,0,0,1,.89-.8,3.73,3.73,0,0,1,1.6-.59h9.16l-2-3Z"/><path class="cls-1" d="M4.87,18.26V33.47a7.15,7.15,0,0,0,1.18,3.16A7.75,7.75,0,0,0,8.8,39.28l1.29-2a7,7,0,0,1-2-2,4.81,4.81,0,0,1-.83-2.38V18.26Z"/><path class="cls-1" d="M23.4,36.49a9.88,9.88,0,0,0,1.13-3.61V18.21H22.11V32.88a6.94,6.94,0,0,1-.88,2.52,8.76,8.76,0,0,1-1.85,1.92l1.23,2A12.83,12.83,0,0,0,23.4,36.49Z"/><path class="cls-1" d="M8.08,40.51a9.39,9.39,0,0,1-3.07-3,8.71,8.71,0,0,1-1.48-4V18.26H1V33.52a12,12,0,0,0,1.63,4.82,15,15,0,0,0,4.15,4.18Z"/><path class="cls-1" d="M17.37,36.09l-.05-.43V19.89h-2V36.26a1.25,1.25,0,0,0,.08.42c0,.19.16.48.16.48l3.32,5.46H10.46l3.27-5.43a2.34,2.34,0,0,0,.19-.46c.05-.24.08-.47.08-.47V19.87H12.07V36s-.06.06-.08.3a.75.75,0,0,1-.19.4L6.42,45.6H22.91l-5.38-9.11Z"/><path class="cls-1" d="M25.83,33.2a8.64,8.64,0,0,1-1.44,4.15,9.92,9.92,0,0,1-3.06,3.16l1.21,2a14.59,14.59,0,0,0,4-4,13.06,13.06,0,0,0,1.71-5.33v-15H25.83Z"/><path class="cls-1" d="M21.23,8.17a6.72,6.72,0,0,0-2.55-6.81A6.38,6.38,0,0,0,14.59,0a6.16,6.16,0,0,0-3.94,1.39C7.34,3.64,8.16,8.17,8.16,8.17Z"/></g></g></svg>